<?xml version="1.0" standalone="no"?>
<!DOCTYPE svg PUBLIC "-//W3C//DTD SVG 20010904//EN"
 "http://www.w3.org/TR/2001/REC-SVG-20010904/DTD/svg10.dtd">
<svg version="1.0" xmlns="http://www.w3.org/2000/svg"
 width="520.000000pt" height="520.000000pt" viewBox="0 0 520.000000 520.000000"
 preserveAspectRatio="xMidYMid meet">
<metadata>
Created by potrace 1.14, written by Peter Selinger 2001-2017
</metadata>
<g transform="translate(0.000000,520.000000) scale(0.100000,-0.100000)"
fill="#000000" stroke="none">
<path d="M1047 4152 l-818 -818 89 -22 c48 -12 106 -24 128 -28 l40 -6 818
818 818 818 -119 28 c-65 15 -123 27 -128 28 -6 0 -378 -368 -828 -818z"/>
<path d="M1527 4042 l-818 -818 108 -24 c59 -12 117 -25 128 -27 17 -4 190
165 838 813 450 449 816 818 814 820 -4 5 -226 54 -241 54 -6 0 -379 -368
-829 -818z"/>
<path d="M2010 3935 c-448 -448 -812 -816 -810 -818 3 -2 50 -13 105 -25 55
-13 109 -25 121 -28 16 -4 171 146 838 813 l818 818 -43 13 c-24 7 -57 15 -74
18 -16 2 -46 9 -65 14 -19 6 -44 10 -55 10 -13 0 -296 -276 -835 -815z"/>
<path d="M2494 3829 c-545 -545 -813 -820 -804 -823 8 -3 58 -15 110 -25 52
-11 102 -22 111 -26 22 -8 1657 1625 1637 1635 -11 6 -158 41 -173 41 -2 0
-18 4 -33 9 -28 8 -55 -18 -848 -811z"/>
<path d="M2975 3720 c-791 -791 -818 -819 -789 -825 16 -4 35 -9 43 -11 8 -3
30 -7 48 -10 19 -3 56 -11 84 -18 l49 -13 815 815 c448 448 813 818 810 822
-2 4 -33 13 -67 20 -35 6 -76 16 -93 20 -85 23 -11 89 -900 -800z"/>
<path d="M3451 3611 l-814 -816 64 -14 c35 -8 65 -15 66 -15 0 -1 4 -17 7 -36
3 -19 9 -48 14 -64 8 -28 29 -7 825 789 546 545 816 822 813 833 -2 9 -7 36
-11 59 -4 24 -13 46 -19 51 -11 8 -111 33 -124 31 -4 -1 -373 -369 -821 -818z"/>
<path d="M3655 3225 c-635 -637 -809 -817 -807 -834 3 -20 8 -21 136 -21 l133
0 711 711 711 711 -27 124 c-15 68 -31 123 -37 123 -5 -1 -374 -367 -820 -814z"/>
<path d="M3991 2969 c-325 -325 -591 -593 -591 -595 0 -2 69 -4 152 -4 l153 0
471 471 472 472 -15 61 c-8 33 -16 66 -17 71 -2 6 -6 31 -11 58 -4 26 -11 49
-15 52 -5 3 -274 -261 -599 -586z"/>
<path d="M4336 2726 l-348 -351 95 -3 95 -3 17 -41 16 -42 270 270 c148 148
269 277 269 286 0 15 -10 63 -45 216 -3 12 -9 21 -13 21 -4 -1 -164 -159 -356
-353z"/>
<path d="M4545 2344 c-137 -139 -251 -255 -253 -257 -1 -2 17 -54 41 -115 l43
-111 244 244 244 244 -18 78 c-9 43 -22 99 -28 126 -5 26 -13 46 -16 46 -4 -1
-119 -116 -257 -255z"/>
<path d="M562 2252 c-71 -4 -80 -21 -79 -134 l1 -88 248 0 c273 0 295 -4 316
-57 7 -15 14 -46 16 -68 3 -22 8 -67 12 -100 3 -33 8 -67 9 -76 7 -37 19 -176
17 -204 -1 -20 -12 -40 -32 -58 -31 -28 -31 -28 -162 -25 l-131 3 -22 39 c-29
51 -75 75 -127 66 -45 -9 -71 -29 -92 -75 -11 -23 -25 -34 -46 -39 -24 -4 -35
-15 -52 -53 -31 -71 -28 -120 11 -155 l32 -29 253 1 c343 2 412 18 522 121 95
91 137 214 136 404 -2 327 -154 515 -422 524 -130 4 -356 6 -408 3z m141 -784
c49 -57 -15 -139 -88 -112 -8 4 -23 20 -31 36 -39 75 62 140 119 76z"/>
<path d="M1625 2242 c-14 -7 -25 -14 -25 -16 0 -2 -27 -92 -60 -199 l-59 -196
-6 -209 c-4 -179 -3 -211 10 -222 8 -7 15 -16 15 -21 0 -5 -33 -41 -74 -80
-46 -44 -73 -76 -69 -85 4 -11 30 -14 120 -14 l115 0 86 73 c145 121 133 115
221 115 l78 0 118 -94 118 -95 115 3 c66 2 117 7 119 13 1 6 -29 43 -67 84
-39 40 -70 77 -70 81 0 4 7 13 15 20 12 10 13 44 9 218 l-6 207 -54 167 c-71
221 -82 246 -107 255 -12 4 -133 7 -270 8 -185 0 -253 -3 -272 -13z m456 -119
c7 -7 40 -146 56 -233 2 -14 8 -44 14 -68 7 -34 6 -50 -7 -77 -27 -57 -53 -63
-261 -61 l-185 1 -33 37 c-40 43 -40 40 13 253 36 147 38 150 66 155 48 8 327
3 337 -7z m-297 -559 c12 -12 13 -20 6 -35 -9 -16 -22 -19 -74 -19 -73 0 -95
15 -76 49 9 18 20 21 70 21 40 0 64 -5 74 -16z m366 -5 c20 -36 -4 -50 -79
-47 -61 3 -66 5 -69 27 -5 32 12 41 80 41 48 0 59 -3 68 -21z"/>
<path d="M1921 1916 c-56 -60 31 -144 89 -86 39 39 11 110 -43 110 -13 0 -34
-11 -46 -24z"/>
<path d="M1879 1772 c-41 -52 -18 -70 91 -67 103 3 100 2 100 28 0 42 -34 62
-107 63 -57 1 -66 -2 -84 -24z"/>
<path d="M2493 2252 c-51 -4 -56 -14 -56 -129 0 -124 -10 -119 239 -120 177
-1 208 -3 223 -17 14 -15 16 -58 17 -390 1 -205 4 -378 8 -385 5 -7 48 -11
126 -11 104 0 120 2 128 17 5 10 8 178 7 373 -1 195 2 365 6 377 11 30 38 36
174 37 115 1 120 2 131 25 17 33 17 183 1 205 -11 15 -51 17 -487 19 -261 1
-494 1 -517 -1z"/>
<path d="M3764 2252 c-18 -2 -39 -11 -48 -21 -9 -10 -86 -204 -172 -432 -177
-471 -191 -509 -188 -526 1 -7 2 -17 3 -23 0 -5 10 -19 21 -30 18 -18 33 -20
165 -20 l144 0 26 28 c54 56 70 109 80 265 5 90 5 98 -11 95 -12 -2 -24 -23
-36 -66 -17 -55 -22 -62 -44 -62 -35 0 -39 21 -19 93 21 78 32 89 120 133 88
42 112 37 153 -32 44 -75 60 -91 96 -98 43 -8 64 -31 49 -54 -17 -28 -108 -18
-146 16 -23 20 -29 13 -32 -42 -3 -43 -1 -47 41 -81 53 -44 71 -75 80 -143 l7
-52 166 0 c154 0 169 2 189 20 21 20 26 34 24 70 0 12 -79 224 -161 435 -11
28 -56 149 -101 270 -45 121 -90 228 -99 237 -13 15 -38 18 -146 20 -72 2
-144 2 -161 0z m202 -356 c75 -64 -10 -182 -97 -135 -31 16 -49 66 -37 101 21
59 86 76 134 34z"/>
<path d="M4686 1894 c-124 -125 -226 -232 -226 -237 0 -13 70 -199 79 -209 4
-4 103 88 220 206 l213 213 -27 124 c-15 68 -29 125 -30 127 -1 1 -104 -99
-229 -224z"/>
<path d="M483 1798 c0 -93 4 -168 9 -169 4 -1 19 -1 33 -1 14 0 29 0 35 1 6 1
7 19 4 45 -6 39 -4 45 16 51 29 9 39 -3 45 -49 3 -21 7 -41 9 -45 8 -12 77 1
83 15 7 20 9 281 2 302 -5 15 -22 17 -121 17 l-116 0 1 -167z m131 7 c31 -32
-13 -68 -46 -39 -17 16 -17 18 -2 36 21 22 28 22 48 3z"/>
<path d="M783 1943 c-8 -12 -12 -26 -10 -30 3 -5 8 -67 12 -138 5 -122 7 -131
31 -152 14 -13 36 -23 50 -24 89 -3 89 -3 90 19 2 27 -18 45 -51 45 -31 0 -42
17 -48 78 -4 36 -1 48 13 57 26 16 49 -5 54 -48 2 -27 9 -37 30 -45 21 -7 28
-18 33 -50 4 -22 6 -43 5 -47 -1 -5 8 -8 19 -8 20 0 21 3 14 68 -4 37 -8 74
-10 82 -2 9 -6 45 -9 81 -8 78 -15 122 -22 129 -3 2 -46 5 -96 5 -83 0 -92 -2
-105 -22z m136 -67 c19 -23 -4 -59 -32 -50 -29 9 -38 24 -26 46 12 22 42 24
58 4z"/>
<path d="M2733 1899 c-34 -12 -55 -52 -47 -85 16 -64 85 -84 129 -39 60 59 -3
154 -82 124z"/>
<path d="M2723 1705 c-20 -14 -27 -36 -38 -129 -7 -50 -19 -64 -53 -61 -39 3
-60 -15 -67 -56 -20 -119 -35 -214 -35 -231 0 -19 32 -32 59 -23 15 4 22 22
31 78 7 40 19 87 27 105 16 33 24 36 104 33 53 -2 68 15 75 84 3 33 7 62 9 65
2 3 6 24 10 48 6 41 -6 79 -29 94 -19 13 -70 9 -93 -7z"/>
<path d="M3857 1363 c-4 -3 -7 -21 -7 -38 0 -30 -38 -101 -64 -117 -6 -4 35
-8 91 -8 l102 0 -5 43 c-7 52 -26 82 -67 107 -35 22 -40 23 -50 13z"/>
<path d="M3229 1027 c-32 -32 -59 -62 -59 -66 0 -7 47 -222 53 -244 1 -4 87
77 190 181 l187 188 -155 -1 -156 0 -60 -58z"/>
<path d="M3581 789 c-165 -166 -301 -308 -301 -316 0 -16 49 -235 53 -239 2
-2 196 190 432 426 l430 430 -156 0 -156 0 -302 -301z"/>
</g>
</svg>
